<?xml version="1.0" standalone="no"?><!DOCTYPE svg PUBLIC "-//W3C//DTD SVG 1.1//EN" "http://www.w3.org/Graphics/SVG/1.1/DTD/svg11.dtd"><svg class="icon" width="200px" height="200.00px" viewBox="0 0 1024 1024" version="1.1" xmlns="http://www.w3.org/2000/svg"><path fill="#333333" d="M512 0C228.894118 0 0 228.894118 0 512s228.894118 512 512 512 512-228.894118 512-512S795.105882 0 512 0z m174.682353 644.517647c12.047059 12.047059 12.047059 30.117647 0 42.164706-6.023529 6.023529-15.058824 9.035294-21.082353 9.035294s-15.058824-3.011765-21.082353-9.035294L512 554.164706l-132.517647 132.517647c-6.023529 6.023529-15.058824 9.035294-21.082353 9.035294s-15.058824-3.011765-21.082353-9.035294c-12.047059-12.047059-12.047059-30.117647 0-42.164706l132.517647-132.517647-132.517647-132.517647c-12.047059-12.047059-12.047059-30.117647 0-42.164706s30.117647-12.047059 42.164706 0l132.517647 132.517647 132.517647-132.517647c12.047059-12.047059 30.117647-12.047059 42.164706 0s12.047059 30.117647 0 42.164706L554.164706 512l132.517647 132.517647z" /></svg>