<?xml version="1.0" standalone="no"?><!DOCTYPE svg PUBLIC "-//W3C//DTD SVG 1.1//EN" "http://www.w3.org/Graphics/SVG/1.1/DTD/svg11.dtd"><svg class="icon" width="128px" height="128.00px" viewBox="0 0 1024 1024" version="1.1" xmlns="http://www.w3.org/2000/svg"><path fill="#000000" d="M512 0C230.4 0 0 230.4 0 512s230.4 512 512 512 512-230.4 512-512S793.6 0 512 0L512 0zM512 960c-249.6 0-448-198.4-448-448s198.4-448 448-448 448 198.4 448 448S761.6 960 512 960L512 960zM236.8 512c0 38.4 6.4 70.4 19.2 102.4s32 64 57.6 89.6c25.6 25.6 57.6 44.8 89.6 57.6 32 12.8 70.4 19.2 102.4 19.2 38.4 0 70.4-6.4 102.4-19.2 32-12.8 64-32 89.6-57.6 25.6-25.6 44.8-57.6 57.6-89.6s19.2-70.4 19.2-102.4c0-38.4-6.4-70.4-19.2-102.4s-32-64-57.6-89.6c-19.2-25.6-44.8-44.8-83.2-64C582.4 243.2 550.4 236.8 512 236.8S441.6 243.2 409.6 256C371.2 275.2 345.6 294.4 320 320S275.2 371.2 256 409.6C243.2 441.6 236.8 473.6 236.8 512L236.8 512z" /></svg>