<?xml version="1.0" standalone="no"?><!DOCTYPE svg PUBLIC "-//W3C//DTD SVG 1.1//EN" "http://www.w3.org/Graphics/SVG/1.1/DTD/svg11.dtd"><svg class="icon" width="200px" height="200.00px" viewBox="0 0 1024 1024" version="1.1" xmlns="http://www.w3.org/2000/svg"><path fill="#333333" d="M544 480 544 0 512 0C230.4 0 0 230.4 0 512s230.4 512 512 512 512-230.4 512-512L1024 480 544 480 544 480zM512 960c-243.2 0-448-198.4-448-448 0-236.8 185.6-428.8 416-448l0 172.8C345.6 256 236.8 371.2 236.8 512c0 153.6 121.6 275.2 275.2 275.2 140.8 0 256-108.8 268.8-243.2L960 544C940.8 774.4 748.8 960 512 960L512 960zM512 960" /></svg>